<svg aria-hidden="true" style="position: absolute; width: 0; height: 0; overflow: hidden;" version="1.1" xmlns="http://www.w3.org/2000/svg" xmlns:xlink="http://www.w3.org/1999/xlink">
    <defs>
        <symbol id="icon-logo" viewBox="0 0 112 32">
            <path d="M20.363 0.48c0.498 0.247 1.057 0.957 1.433 1.377 3.223 3.6 4.913 8.185 4.614 13.011-0.289 4.671-2.596 8.818-6.058 11.883-0.656-0.448-1.255-1.086-1.78-1.679-2.941-3.326-4.553-8-4.272-12.433 0.29-4.571 2.626-9.145 6.063-12.159z"></path>
            <path d="M34.077 7.017c0.009 0.016 0.020 0.032 0.029 0.049 0.183 0.373 0.236 0.966 0.283 1.381 0.242 2.156 0.042 4.317-0.716 6.358-1.894 5.099-6.272 8.853-11.113 11.078-0.057-0.001-0.019 0.004-0.106-0.047 0.296-0.484 0.708-0.916 1.050-1.371 0.522-0.71 0.995-1.454 1.416-2.228 1.483-2.729 2.192-5.729 2.19-8.824-0.001-0.879-0.021-1.757-0.275-2.605 0.454-0.504 1.010-0.928 1.55-1.337 1.74-1.317 3.493-2.233 5.693-2.453z"></path>
            <path d="M6.588 7.038c0.261 0.010 0.525 0.044 0.783 0.083 1.989 0.303 3.728 1.361 5.282 2.587 0.434 0.342 0.908 0.699 1.234 1.148-0.826 4.243 0.269 8.693 2.464 12.363 0.35 0.583 0.729 1.149 1.134 1.696 0.194 0.261 0.424 0.497 0.598 0.77l-0.061 0.080c-3.618-1.547-7.007-4.285-9.187-7.557-2.287-3.433-3.044-7.132-2.246-11.17z"></path>
            <path d="M37.618 16.508c0.577-0.069 1.869-0.142 2.353 0.166 0.024 0.073 0.032 0.080 0.034 0.168 0.010 0.338-0.211 0.845-0.326 1.161-0.767 2.179-2.081 4.124-3.815 5.65-3.395 3.001-7.795 4.078-12.238 3.793-0.839-0.088-1.705-0.146-2.511-0.403 3.723-1.145 7.265-3.485 9.831-6.406 0.631-0.718 1.093-1.552 1.707-2.275 1.165-1.371 3.277-1.734 4.966-1.853z"></path>
            <path d="M2.050 16.621c1.735-0.205 4.089 0.081 5.518 1.161 0.85 0.642 1.362 1.835 2.064 2.647 2.196 2.543 4.946 4.548 8.039 5.861 0.659 0.282 1.337 0.576 2.033 0.748l-1.392 0.233c-4.054 0.583-8.254-0.141-11.723-2.396-2.362-1.536-4.025-3.643-5.003-6.27-0.144-0.385-0.358-0.803-0.432-1.205-0.043-0.234-0.005-0.389 0.132-0.588 0.218-0.16 0.501-0.158 0.763-0.19z"></path>
            <path d="M72.844 13.118c1.351-0.011 2.825-0.132 4.159 0.063 0.859 0.125 1.73 0.432 2.253 1.168 0.384 0.542 0.509 1.303 0.391 1.951-0.146 0.792-0.648 1.25-1.284 1.677 0.153 0.064 0.303 0.134 0.449 0.212 0.562 0.304 0.959 0.831 1.124 1.445 0.225 0.84 0.044 1.704-0.374 2.449-0.094 0.143-0.205 0.269-0.329 0.387-1.282 1.216-4.093 0.98-5.75 0.965-0.319-0.003-0.739 0.026-0.977-0.216-0.058-0.121-0.081-0.202-0.089-0.339-0.109-1.78-0.010-3.626-0.010-5.411-0.001-1.265-0.127-2.911 0.038-4.133 0.127-0.159 0.208-0.158 0.4-0.217zM77.37 19.376c-0.716-0.467-1.921-0.332-2.751-0.331l0.003 2.306c0.92 0.007 1.996 0.149 2.813-0.345 0.192-0.283 0.385-0.705 0.329-1.057-0.040-0.256-0.18-0.434-0.393-0.573zM77.029 15.276c-0.683-0.411-1.641-0.306-2.409-0.302v2.213c0.824 0.007 1.806 0.128 2.526-0.337 0.193-0.277 0.38-0.675 0.307-1.025-0.053-0.257-0.206-0.418-0.424-0.549z"></path>
            <path d="M60.246 15.515c0.206-0.017 0.413-0.006 0.616 0.033 0.618 0.124 0.919 0.579 1.25 1.064 0.019-0.17 0.032-0.353 0.072-0.518 0.041-0.173 0.135-0.279 0.29-0.362 0.25-0.133 0.786-0.141 1.047-0.044 0.191 0.071 0.403 0.237 0.469 0.436 0.194 0.591 0.119 6.371 0.007 7.161-0.074 0.521-0.236 1.035-0.499 1.491-0.423 0.737-1.145 1.217-1.954 1.436-1.142 0.308-2.441 0.21-3.46-0.404-0.455-0.273-0.668-0.625-0.788-1.133 0.038-0.183 0.084-0.362 0.241-0.48 0.51-0.386 1.613 0.262 2.18 0.367 0.488 0.090 1.014 0.041 1.419-0.266 0.668-0.504 0.779-1.436 0.893-2.204-0.447 0.478-0.873 0.863-1.533 1.025-0.715 0.176-1.498 0.055-2.113-0.353-0.81-0.537-1.261-1.457-1.427-2.392-0.202-1.138-0.026-2.499 0.664-3.452 0.658-0.908 1.563-1.242 2.626-1.405zM60.367 17.257c-0.532 0.201-0.827 0.447-1.055 0.978-0.281 0.652-0.289 1.597-0.014 2.251 0.145 0.345 0.436 0.709 0.802 0.832 0.242 0.081 0.534 0.046 0.783 0.029 0.439-0.157 0.688-0.341 0.896-0.767 0.32-0.654 0.33-1.576 0.086-2.259-0.142-0.397-0.422-0.787-0.819-0.958-0.203-0.088-0.459-0.116-0.678-0.105z"></path>
            <path d="M104.471 15.576c0.523-0.069 1.038-0.046 1.532 0.159 0.682 0.282 1.036 0.797 1.306 1.453 0.138-0.347 0.291-0.696 0.536-0.983 0.387-0.456 0.894-0.637 1.482-0.659 0.676-0.026 1.369 0.129 1.865 0.615 0.326 0.32 0.526 0.748 0.635 1.186 0.29 1.168 0.128 3.677 0.132 4.997 0.001 0.202 0.026 0.84-0.132 0.96-0.269 0.203-1.221 0.158-1.556 0.11-0.195-0.027-0.316-0.133-0.397-0.31-0.124-0.273-0.058-0.76-0.054-1.062 0.013-0.979 0.254-3.684-0.325-4.398-0.133-0.164-0.321-0.266-0.534-0.281-0.312-0.022-0.709 0.086-0.935 0.308-0.803 0.787-0.537 3.583-0.53 4.683 0.002 0.222 0.010 0.465-0.018 0.685-0.012 0.097-0.046 0.21-0.135 0.261-0.342 0.196-1.175 0.167-1.552 0.079-0.197-0.046-0.281-0.112-0.351-0.303-0.116-0.316-0.051-0.785-0.045-1.119 0.018-0.981 0.25-3.42-0.249-4.155-0.15-0.221-0.373-0.355-0.635-0.398-0.298-0.049-0.609-0.009-0.851 0.183-0.976 0.77-0.709 3.47-0.705 4.586 0.001 0.268 0.056 0.652-0.006 0.903-0.025 0.105-0.056 0.168-0.145 0.227-0.314 0.206-1.165 0.162-1.54 0.088-0.158-0.031-0.259-0.128-0.327-0.271-0.096-0.203-0.125-6.071-0.089-6.652 0.010-0.162 0.043-0.335 0.117-0.48 0.095-0.187 0.255-0.309 0.451-0.372 0.464-0.15 1.044 0.016 1.454 0.244 0.099 0.367 0.028 0.847 0.012 1.229 0.048-0.097 0.097-0.195 0.147-0.291 0.362-0.7 0.703-0.985 1.443-1.22z"></path>
            <path d="M96.028 15.606c2.161-0.045 3.957 1.657 4.029 3.818s-1.607 3.976-3.767 4.074c-1.421 0.065-2.767-0.639-3.523-1.844s-0.807-2.723-0.131-3.974c0.675-1.252 1.972-2.045 3.393-2.074zM95.762 17.324c-0.581 0.258-0.896 0.554-1.121 1.16-0.269 0.725-0.226 1.739 0.118 2.431 0.186 0.373 0.474 0.676 0.875 0.81 0.275 0.092 0.531 0.107 0.813 0.040 0.557-0.233 0.89-0.53 1.118-1.1 0.286-0.715 0.283-1.67-0.046-2.371-0.206-0.438-0.573-0.8-1.043-0.939-0.23-0.068-0.479-0.053-0.715-0.031z"></path>
            <path d="M52.273 15.618c2.175-0.098 4.018 1.583 4.12 3.758s-1.577 4.022-3.751 4.126c-2.179 0.105-4.030-1.578-4.131-3.758s1.584-4.028 3.763-4.126zM52.887 17.376c-0.252-0.086-0.511-0.085-0.772-0.052-0.582 0.288-0.916 0.589-1.138 1.225-0.251 0.721-0.214 1.75 0.148 2.427 0.198 0.369 0.497 0.64 0.901 0.763 0.248 0.076 0.529 0.083 0.781 0.022 0.555-0.231 0.881-0.529 1.104-1.099 0.283-0.722 0.26-1.675-0.068-2.38-0.192-0.414-0.52-0.756-0.957-0.906z"></path>
            <path d="M87.184 15.661c1.401-0.226 2.814 0.318 3.703 1.423s1.115 2.604 0.593 3.923c-0.524 1.319-1.715 2.256-3.12 2.452-2.14 0.299-4.123-1.181-4.445-3.318s1.137-4.135 3.27-4.48zM87.506 17.32c-0.585 0.249-0.921 0.531-1.158 1.137-0.277 0.71-0.25 1.693 0.078 2.383 0.198 0.416 0.535 0.758 0.981 0.9 0.223 0.071 0.476 0.070 0.706 0.042 0.583-0.246 0.923-0.522 1.164-1.128 0.281-0.704 0.276-1.675-0.051-2.363-0.194-0.409-0.525-0.753-0.957-0.906-0.244-0.086-0.508-0.085-0.763-0.064z"></path>
            <path d="M67.471 15.58c0.493-0.059 0.969-0.049 1.456 0.064 0.739 0.171 1.358 0.601 1.734 1.263 0.201 0.355 0.318 0.744 0.374 1.147 0.086 0.623 0.135 4.559-0.007 5.1-0.119 0.152-0.238 0.207-0.423 0.246-0.316 0.067-1.008 0.107-1.263-0.129-0.223-0.206-0.177-0.637-0.18-0.914-0.37 0.547-0.743 0.988-1.415 1.156-0.752 0.187-1.449-0.033-2.096-0.406-0.276-0.254-0.485-0.515-0.604-0.875-0.2-0.608-0.136-1.429 0.176-1.99 0.755-1.359 2.536-1.278 3.837-1.661l0.081-0.025c-0.053-0.163-0.103-0.329-0.171-0.486-0.736-1.698-2.573 0.157-3.461-0.31-0.179-0.094-0.309-0.285-0.354-0.479-0.061-0.258 0.009-0.425 0.15-0.639 0.477-0.727 1.371-0.911 2.167-1.063zM69.053 20.118c-0.541 0.149-1.556 0.312-1.879 0.803-0.105 0.16-0.114 0.37-0.046 0.547 0.048 0.124 0.142 0.233 0.225 0.336 0.559 0.038 0.91-0.003 1.337-0.392 0.259-0.236 0.497-0.616 0.484-0.982-0.003-0.091-0.029-0.183-0.049-0.271l-0.073-0.042z"></path>
            <path d="M45.399 17.042c0.194-0.616 1.702-3.562 2.183-3.839 0.25-0.144 1.582-0.166 1.85-0.043 0.172 0.079 0.19 0.125 0.268 0.285-0.137 0.763-1.823 3.323-2.321 4.158l-0.876 1.456c0.003 0.875 0.157 3.548-0.148 4.182-0.107 0.082-0.183 0.127-0.317 0.159-0.411 0.096-1.229 0.067-1.592-0.161-0.281-0.369-0.134-3.437-0.133-4.116-0.448-0.716-3.337-5.329-3.261-5.77 0.095-0.137 0.157-0.172 0.312-0.232 0.487-0.014 1.478-0.144 1.882 0.101 0.523 0.318 1.96 3.172 2.154 3.82z"></path>
            <path d="M81.183 13.119c0.511-0.013 1.348-0.141 1.789 0.123 0.124 0.842 0.075 1.733 0.077 2.583l0.005 3.933c0 1.027 0.113 2.263-0.019 3.271-0.026 0.201-0.15 0.266-0.295 0.381-0.533 0.018-1.352 0.149-1.79-0.197-0.103-0.394-0.168-9.474-0.069-9.832 0.047-0.17 0.159-0.189 0.303-0.262z"></path>
            <path d="M20.573 27.313c0.705 0.251 1.415 0.451 2.155 0.572 1.275 0.207 2.755 0.146 3.9 0.81 0.846 0.49 1.711 1.639 1.95 2.591 0.044 0.175 0.031 0.189-0.058 0.334-0.885 0.319-1.744 0.243-2.625-0.045-2.121-0.694-4.283-2.24-5.322-4.261z"></path>
            <path d="M20.175 27.318c0.045-0.004 0.088 0.019 0.131 0.032-0.002 0.020-0.002 0.041-0.007 0.061-0.109 0.451-1.855 2.292-2.258 2.611-1.393 1.1-3.462 1.974-5.26 1.759-0.048-0.010-0.115-0.023-0.159-0.044-0.097-0.045-0.158-0.081-0.184-0.185-0.068-0.281 0.092-0.607 0.22-0.852 0.412-0.787 1.057-1.711 1.865-2.136 0.996-0.523 2.466-0.521 3.573-0.718 0.709-0.126 1.392-0.318 2.079-0.528z"></path>
        </symbol>
        <symbol id="icon-facebook" viewBox="0 0 32 32">
            <path d="M29.333 16.405c0-7.409-5.969-13.415-13.333-13.415s-13.333 6.006-13.333 13.415c0 6.696 4.876 12.245 11.25 13.252v-9.374h-3.385v-3.878h3.385v-2.955c0-3.362 1.991-5.219 5.036-5.219 1.459 0 2.985 0.262 2.985 0.262v3.301h-1.681c-1.656 0-2.173 1.034-2.173 2.095v2.516h3.698l-0.591 3.878h-3.107v9.374c6.374-1.006 11.25-6.556 11.25-13.252z"></path>
        </symbol>
        <symbol id="icon-instagram" viewBox="0 0 32 32">
            <path d="M15.998 6.161c3.206 0 3.585 0.014 4.846 0.071 1.172 0.052 1.804 0.248 2.226 0.412 0.558 0.216 0.961 0.478 1.378 0.895 0.422 0.422 0.679 0.82 0.9 1.378 0.164 0.422 0.361 1.059 0.412 2.226 0.056 1.266 0.071 1.645 0.071 4.847s-0.014 3.585-0.071 4.847c-0.052 1.172-0.248 1.804-0.412 2.227-0.216 0.558-0.478 0.961-0.895 1.377-0.422 0.422-0.82 0.679-1.378 0.9-0.422 0.164-1.060 0.361-2.226 0.412-1.266 0.056-1.645 0.071-4.847 0.071s-3.585-0.014-4.847-0.071c-1.172-0.052-1.804-0.248-2.226-0.412-0.558-0.216-0.961-0.478-1.378-0.895-0.422-0.422-0.679-0.82-0.9-1.378-0.164-0.422-0.361-1.060-0.412-2.226-0.056-1.266-0.071-1.645-0.071-4.847s0.014-3.585 0.071-4.847c0.052-1.172 0.248-1.804 0.412-2.226 0.216-0.558 0.478-0.961 0.895-1.378 0.422-0.422 0.82-0.679 1.378-0.9 0.422-0.164 1.059-0.361 2.226-0.412 1.261-0.056 1.641-0.071 4.847-0.071h0.001zM15.998 4.001c-3.258 0-3.665 0.014-4.945 0.071-1.275 0.056-2.151 0.262-2.91 0.558-0.792 0.309-1.462 0.717-2.127 1.387-0.67 0.666-1.078 1.336-1.387 2.123-0.295 0.764-0.502 1.636-0.558 2.91-0.056 1.285-0.071 1.692-0.071 4.949s0.014 3.665 0.071 4.945c0.056 1.275 0.262 2.151 0.558 2.91 0.31 0.792 0.717 1.462 1.387 2.127 0.665 0.665 1.336 1.078 2.123 1.383 0.764 0.295 1.636 0.502 2.91 0.558 1.279 0.056 1.687 0.071 4.945 0.071s3.666-0.014 4.945-0.071c1.275-0.056 2.151-0.262 2.91-0.558 0.787-0.305 1.458-0.717 2.123-1.383s1.078-1.336 1.383-2.123c0.295-0.764 0.502-1.635 0.558-2.91 0.056-1.279 0.071-1.687 0.071-4.945s-0.014-3.665-0.071-4.945c-0.056-1.275-0.262-2.151-0.558-2.91-0.295-0.797-0.703-1.467-1.373-2.133-0.665-0.665-1.336-1.078-2.123-1.383-0.764-0.295-1.635-0.502-2.91-0.558-1.284-0.061-1.692-0.075-4.949-0.075l-0.001 0.001z"></path>
            <path d="M15.997 9.836c-3.402 0-6.163 2.76-6.163 6.163s2.76 6.163 6.163 6.163c3.403 0 6.163-2.76 6.163-6.163s-2.76-6.163-6.163-6.163zM15.997 19.997c-2.208 0-3.998-1.79-3.998-3.998s1.79-3.998 3.998-3.998c2.208 0 3.998 1.79 3.998 3.998s-1.79 3.998-3.998 3.998z"></path>
            <path d="M23.842 9.592c0 0.795-0.644 1.439-1.439 1.439s-1.439-0.644-1.439-1.439 0.644-1.439 1.439-1.439c0.795 0 1.439 0.644 1.439 1.439z"></path>
        </symbol>
        <symbol id="icon-iinkedin" viewBox="0 0 32 32">
            <path d="M25.75 4h-19.5c-1.237 0-2.25 1.013-2.25 2.25v19.5c0 1.237 1.013 2.25 2.25 2.25h19.5c1.237 0 2.25-1.013 2.25-2.25v-19.5c0-1.237-1.013-2.25-2.25-2.25zM13 23.5h-3v-10.5h3v10.5zM11.5 11.5c-0.829 0-1.5-0.671-1.5-1.5s0.671-1.5 1.5-1.5c0.829 0 1.5 0.671 1.5 1.5s-0.671 1.5-1.5 1.5zM23.5 23.5h-3v-6c0-0.829-0.671-1.5-1.5-1.5s-1.5 0.671-1.5 1.5v6h-3v-10.5h3v1.861c0.619-0.848 1.565-1.861 2.625-1.861 1.866 0 3.375 1.679 3.375 3.75v6.75z"></path>
        </symbol>
        <symbol id="icon-menu" viewBox="0 0 32 32">
            <path d="M5.333 8h21.333v2.667h-21.333v-2.667zM5.333 14.667h21.333v2.667h-21.333v-2.667zM5.333 21.333h21.333v2.667h-21.333v-2.667z"></path>
        </symbol>
        <symbol id="icon-play" viewBox="0 0 32 32">
            <path d="M31.38 7.928c-0.174-0.644-0.513-1.231-0.984-1.703s-1.058-0.813-1.701-0.988c-2.386-0.655-11.933-0.666-11.933-0.666s-9.545-0.011-11.933 0.616c-0.643 0.183-1.228 0.528-1.7 1.003s-0.813 1.062-0.991 1.706c-0.629 2.386-0.635 7.336-0.635 7.336s-0.006 4.974 0.619 7.336c0.35 1.306 1.379 2.338 2.686 2.69 2.411 0.655 11.931 0.666 11.931 0.666s9.547 0.011 11.933-0.614c0.644-0.175 1.231-0.514 1.703-0.986s0.813-1.058 0.989-1.701c0.631-2.385 0.635-7.333 0.635-7.333s0.030-4.975-0.62-7.362zM13.709 19.817l0.008-9.143 7.934 4.579-7.942 4.564z"></path>
        </symbol>
        <symbol id="icon-x" viewBox="0 0 32 32">
            <path d="M22.901 5.657h3.68l-8.040 9.037 9.459 12.297h-7.406l-5.801-7.458-6.637 7.458h-3.682l8.6-9.666-9.074-11.668h7.594l5.243 6.817 6.064-6.817zM21.61 24.824h2.039l-13.163-17.115h-2.188l13.312 17.115z"></path>
        </symbol>
        <symbol id="icon-close" viewBox="0 0 32 32">
            <path d="M27.179 0.918l-11.315 11.312-11.312-11.312-3.771 3.771 11.312 11.312-11.312 11.312 3.771 3.771 11.312-11.312 11.315 11.312 3.771-3.771-11.312-11.312 11.312-11.312-3.771-3.771z"></path>
        </symbol>
        <symbol id="copyright" viewBox="0 0 32 32">
            <path d="M16.372 29.498c-2.824 0-5.362-0.625-7.616-1.873-2.226-1.249-3.978-2.987-5.254-5.213-1.249-2.226-1.873-4.752-1.873-7.575s0.625-5.349 1.873-7.575c1.276-2.226 3.027-3.964 5.254-5.213 2.254-1.249 4.792-1.873 7.616-1.873s5.349 0.624 7.575 1.873c2.254 1.249 4.005 2.987 5.254 5.213 1.276 2.226 1.914 4.752 1.914 7.575s-0.638 5.349-1.914 7.575c-1.249 2.226-3 3.964-5.254 5.213-2.226 1.249-4.752 1.873-7.575 1.873zM16.372 27.421c2.389 0 4.521-0.543 6.394-1.629 1.901-1.086 3.38-2.579 4.439-4.48 1.086-1.928 1.629-4.086 1.629-6.476s-0.543-4.534-1.629-6.435c-1.059-1.928-2.539-3.435-4.439-4.521-1.873-1.086-4.005-1.629-6.394-1.629-2.362 0-4.494 0.543-6.394 1.629s-3.394 2.593-4.48 4.521c-1.059 1.901-1.588 4.046-1.588 6.435s0.529 4.548 1.588 6.476c1.086 1.901 2.579 3.394 4.48 4.48s4.032 1.629 6.394 1.629zM16.657 23.43c-2.199 0-3.951-0.787-5.254-2.362-1.303-1.602-1.955-3.72-1.955-6.353 0-2.661 0.665-4.779 1.996-6.353s3.095-2.362 5.295-2.362c1.195 0 2.267 0.258 3.217 0.774 0.95 0.489 1.656 1.154 2.118 1.996l-1.425 1.507c-0.434-0.624-0.991-1.113-1.67-1.466-0.652-0.353-1.398-0.529-2.24-0.529-1.439 0-2.593 0.584-3.462 1.751-0.842 1.168-1.263 2.729-1.263 4.684s0.421 3.516 1.263 4.684c0.842 1.168 1.969 1.751 3.38 1.751 1.711 0 3.041-0.679 3.991-2.036l1.425 1.548c-0.489 0.815-1.222 1.48-2.199 1.996-0.95 0.516-2.023 0.774-3.217 0.774z"></path>
        </symbol>
        <symbol id="check" viewBox="0 0 31 32">
            <path d="M26.045 10.44l-13.568 13.568c-0.12 0.121-0.284 0.189-0.454 0.189s-0.334-0.068-0.454-0.189l-6.899-6.899c-0.121-0.12-0.189-0.284-0.189-0.454s0.068-0.334 0.189-0.454l0.896-0.896c0.12-0.121 0.284-0.189 0.454-0.189s0.334 0.068 0.454 0.189l5.542 5.542 12.224-12.224c0.253-0.245 0.656-0.245 0.909 0l0.896 0.909c0.121 0.12 0.189 0.284 0.189 0.454s-0.068 0.334-0.189 0.454z"></path>
        </symbol>
        <symbol id="youtube" viewBox="0 0 32 32">
            <path d="M28.279 9.978c-0.146-0.541-0.431-1.034-0.826-1.431s-0.888-0.683-1.429-0.83c-2.004-0.55-10.024-0.559-10.024-0.559s-8.018-0.009-10.024 0.517c-0.54 0.154-1.032 0.444-1.428 0.842s-0.683 0.892-0.833 1.433c-0.529 2.004-0.534 6.162-0.534 6.162s-0.005 4.178 0.52 6.162c0.294 1.097 1.158 1.964 2.257 2.259 2.025 0.55 10.022 0.559 10.022 0.559s8.019 0.009 10.024-0.516c0.541-0.147 1.034-0.432 1.431-0.828s0.683-0.888 0.831-1.429c0.53-2.003 0.534-6.159 0.534-6.159s0.026-4.179-0.521-6.184zM13.435 19.965l0.006-7.68 6.665 3.846-6.671 3.834z"></path>
        </symbol>
    </defs>
</svg>